<?xml version="1.0" standalone="no"?>
<!DOCTYPE svg PUBLIC "-//W3C//DTD SVG 20010904//EN"
 "http://www.w3.org/TR/2001/REC-SVG-20010904/DTD/svg10.dtd">
<svg version="1.0" xmlns="http://www.w3.org/2000/svg"
 width="1024.000000pt" height="1024.000000pt" viewBox="0 0 1024.000000 1024.000000"
 preserveAspectRatio="xMidYMid meet">
<metadata>
Created by potrace 1.14, written by Peter Selinger 2001-2017
</metadata>
<g transform="translate(0.000000,1024.000000) scale(0.100000,-0.100000)"
fill="#000000" stroke="none">
<path d="M1623 10224 c-759 -110 -1380 -670 -1568 -1412 -58 -229 -55 -11 -55
-3692 0 -3681 -3 -3463 55 -3692 170 -673 700 -1203 1373 -1373 229 -58 11
-55 3692 -55 2929 0 3399 2 3489 15 840 120 1496 776 1616 1616 22 157 22
6821 0 6978 -120 840 -776 1496 -1616 1616 -90 13 -558 15 -3499 14 -2784 -1
-3412 -4 -3487 -15z m3577 -2172 c110 -648 372 -1170 842 -1679 481 -520 1077
-860 1748 -997 138 -28 332 -55 413 -57 l52 -2 -65 -8 c-36 -5 -135 -19 -220
-30 -185 -25 -446 -89 -625 -153 -161 -58 -475 -212 -615 -301 -566 -362
-1050 -914 -1303 -1486 -132 -298 -225 -659 -257 -994 -5 -60 -12 -126 -13
-145 -2 -19 -5 -8 -5 25 -1 33 -9 117 -17 186 -85 732 -403 1379 -939 1914
-568 566 -1221 887 -1976 970 -164 18 -187 23 -113 24 78 1 273 28 413 57 522
106 996 334 1404 673 120 100 359 333 455 446 352 410 590 880 700 1384 33
151 70 415 72 514 1 45 5 23 15 -78 8 -77 23 -195 34 -263z"/>
</g>
</svg>
