<svg xmlns="http://www.w3.org/2000/svg" width="125.333" height="100" viewBox="-1.6 -1.6 97 79"><path d="M63.35 37.45V36.2a98.917 98.917 0 0 1 .013-.492c.048-1.656.116-1.954.437-3.008a348.176 348.176 0 0 0 .643-2.07l1.932-7.61a5.799 5.799 0 0 0 .025-.52c0-.55-.1-.95-.3-1.25a1.375 1.375 0 0 0-.42-.392 1.135 1.135 0 0 0-.58-.158 1.303 1.303 0 0 0-.643.177 1.89 1.89 0 0 0-.4.308 2.367 2.367 0 0 0-.107.115 7.026 7.026 0 0 0-1.017 1.775c-.683 1.615-1.258 3.92-1.652 6.621a56.223 56.223 0 0 0-.531 5.954l-.05 1.9-.75 2.1c-2.934 8.322-6.748 17.154-9.17 21.195a22.871 22.871 0 0 1-.28.455 15.322 15.322 0 0 1-.263.373c-.74 1.019-1.715 2.127-1.937 2.127-.45 0-1.25-3.45-1.85-8.15-.5-3.95-.75-8-.75-12.55a147.265 147.265 0 0 1 .176-6.992l.393-6.202a259.75 259.75 0 0 1 .181-2.206 477.602 477.602 0 0 1 .193-1.963c.338-3.385.775-7.392 1.107-9.637a143.314 143.314 0 0 0 .139-.924l.203-1.453a1.135 1.135 0 0 0 .008-.073.128.128 0 0 1 .082-.119.4.4 0 0 1 .168-.031c.302 0 .381-.297.397-1.181a26.341 26.341 0 0 0 .003-.469 19.015 19.015 0 0 0-.017-.288c-.047-.685-.111-.784-.333-.962-.197-.147-.394-.247-.543-.25a.344.344 0 0 0-.007 0 .761.761 0 0 0-.35.093c-.083.043-.167.1-.25.17a2.232 2.232 0 0 0-.15.137c-1.631 1.73-3.751 17.24-4.041 29.864a133.654 133.654 0 0 0-.009.436v.65c0 3.45.3 9.8.65 12.3 1 7.65 2.1 11.2 3.65 11.8a3.465 3.465 0 0 0 .408.085A1.888 1.888 0 0 0 48 65.9c.4 0 .8-.1 1.15-.25 2.021-1.033 5.542-7.852 9.777-18.961a261.067 261.067 0 0 0 .823-2.189l1.1-3 .05 1.65c.273 8.182 2.777 19.174 5.709 25.838a30.514 30.514 0 0 0 .891 1.862 20.7 20.7 0 0 0 .409.749c.739 1.286 1.468 2.189 2.229 2.739a3.461 3.461 0 0 0 1.162.562 1.799 1.799 0 0 0 .217.058c.176.035.342.041.523.042a20.539 20.539 0 0 0 .11 0 3.631 3.631 0 0 0 1.573-.382c1.873-.897 3.786-3.347 5.488-7.131A40.65 40.65 0 0 0 80.3 64.8a96.707 96.707 0 0 0 3.207-10.336 87.505 87.505 0 0 0 1.343-6.314 251.025 251.025 0 0 0 .455-2.678c.962-5.863 1.696-11.726 2.695-21.322a673.588 673.588 0 0 0 .748-7.627c.506-5.493.825-9.828.946-12.59a49.374 49.374 0 0 0 .056-2.083v-.8a209.422 209.422 0 0 0-.013-.14c-.078-.81-.097-.899-.302-.908A1.849 1.849 0 0 0 89.35 0a.526.526 0 0 0-.137.013c-.122.034-.166.154-.202.556A10.112 10.112 0 0 0 89 .7a6664.137 6664.137 0 0 1-.694 6.79L85.85 30.6c-.667 5.862-1.834 13.495-2.764 18.138a84.434 84.434 0 0 1-.136.662c-1.432 6.885-4.103 14.794-6.276 18.836a17.939 17.939 0 0 1-.524.914 16.652 16.652 0 0 1-.712 1.023c-.982 1.302-2.011 2.238-2.782 2.502a1.264 1.264 0 0 1-.406.075c-.547 0-1.044-.445-1.738-1.482a14.197 14.197 0 0 1-.012-.018c-2.5-3.85-5.4-14.1-6.55-23.2a36.816 36.816 0 0 1-.139-1.201 111 111 0 0 1-.459-8.87 62.594 62.594 0 0 1-.002-.529zM30 37.15l-.7.1.1-3.65a139.105 139.105 0 0 0 .062-1.981l.087-7.481a434.787 434.787 0 0 0 .001-.788 371.654 371.654 0 0 0-.017-3.55c-.033-3.412-.108-6.262-.183-7.2-.436-5.318-1.176-8.774-2.286-10.666a5.197 5.197 0 0 0-.514-.734C26 .6 25.6.35 24.9.35c-1.15 0-2 .75-3.05 2.6a15.334 15.334 0 0 0-.268.491c-.959 1.829-1.919 4.531-3.928 11.177A733.808 733.808 0 0 0 16.7 17.8l-4.48 14.41a4891.822 4891.822 0 0 1-.27.84 2055.192 2055.192 0 0 0-.691 2.114l-1.207 3.788a3.924 3.924 0 0 0-.052.198l-.25.75h-.8c-.392 0-1-.092-1.751-.277a18.149 18.149 0 0 1-.649-.173c-1.907-.489-2.667-.643-4.243-.743A37.284 37.284 0 0 0 2.2 38.7a7.807 7.807 0 0 0-.394-.033c-.135-.008-.26-.013-.377-.015a18.543 18.543 0 0 0-.329-.002 3.634 3.634 0 0 0-.326.014c-.232.021-.403.067-.527.138A.521.521 0 0 0 0 39.1v.15a.688.688 0 0 0 .257.546c.148.13.365.248.669.363a6.431 6.431 0 0 0 .424.141c1.016.352 2.031.551 3.452.693A43.929 43.929 0 0 0 6.1 41.1a31.03 31.03 0 0 1 .975.106c1.066.134 1.78.299 1.975.494v.05c0 .2-.2 1-.45 1.95a404.31 404.31 0 0 0-2.622 9.693A127.039 127.039 0 0 0 5.7 54.5a138.642 138.642 0 0 0-.255 1.014c-.958 3.866-1.916 8.379-2.033 9.465a1.719 1.719 0 0 0-.012.171v.05a.527.527 0 0 0 .099.221c.074.096.178.157.287.174a.408.408 0 0 0 .064.005.416.416 0 0 0 .232-.077.632.632 0 0 0 .168-.173c.092-.137.393-1.325.713-2.754a92.649 92.649 0 0 0 .087-.396 251.235 251.235 0 0 1 .587-2.504C7.451 52.129 10.136 42.2 10.45 42.2a.737.737 0 0 1 .203.048c.725.244 2.841 1.387 4.039 2.151a15.599 15.599 0 0 1 .158.101 21.356 21.356 0 0 1 6.882 7.798 26.218 26.218 0 0 1 2.518 7.052 47.693 47.693 0 0 1 .117.627c.238 1.329.508 3.094.664 4.398A33.391 33.391 0 0 1 25.1 65a49.832 49.832 0 0 0 .022.141c.087.554.147.824.378 1.009a1.074 1.074 0 0 0 .604.286 1.338 1.338 0 0 0 .196.014 1.386 1.386 0 0 0 .23-.019.997.997 0 0 0 .62-.331c.374-.421.355-.36.76-4.654A1286.61 1286.61 0 0 1 28 60.5a295.697 295.697 0 0 0 .313-3.6c.427-5.293.715-10.587.837-15.15l.135-2.71a.826.826 0 0 1 .015-.09l.05-.35 2.05-.4 2.231-.481a.997.997 0 0 0 .069-.019c.121-.06.205-.139.253-.225A.358.358 0 0 0 34 37.3a.467.467 0 0 0-.037-.19c-.046-.103-.133-.177-.263-.21a.165.165 0 0 1-.023-.002c-.043-.006-.114-.025-.196-.037a.902.902 0 0 0-.131-.011c-.448 0-1.18.072-2.066.165A663.199 663.199 0 0 1 30 37.15zM26.85 19.7v3a1314.475 1314.475 0 0 1-.039 2.216L26.51 37.55a.523.523 0 0 1-.01.1 1.482 1.482 0 0 0-.089.012l-2.656.402a703.934 703.934 0 0 1-.905.136 184.925 184.925 0 0 0-.821.105l-6.14.846a280.193 280.193 0 0 0-.339.049 421.78 421.78 0 0 1-.941.139c-2.035.297-2.959.411-3.309.411a8.594 8.594 0 0 1-.052 0c-.058 0-.096-.002-.119-.01a.038.038 0 0 1-.029-.04.69.69 0 0 1 .023-.084c.094-.316.473-1.469.905-2.87a140.351 140.351 0 0 0 .122-.396 8447.961 8447.961 0 0 0 .788-2.467L17.35 19.85a2595.258 2595.258 0 0 1 .92-2.964c2.297-7.382 2.95-9.283 3.879-11.184A31.948 31.948 0 0 1 22.4 5.2a37.313 37.313 0 0 1 .295-.579c.436-.834.761-1.348 1.147-1.764A4.46 4.46 0 0 1 24.1 2.6a7.197 7.197 0 0 0 .004-.003c.188-.151.319-.272.415-.322a.181.181 0 0 1 .081-.025.218.218 0 0 1 .143.055c.072.059.14.167.221.324A5.774 5.774 0 0 1 25 2.7a9.558 9.558 0 0 1 .728 2.07c.628 2.533.988 6.477 1.091 11.643a164.956 164.956 0 0 1 .031 3.287zm-.7 19.4l.35-.05-.05 1.1-.546 11.605a247.67 247.67 0 0 1-.054.945c-.1 1.95-.25 3.65-.3 3.8 0 .048 0 .05-.044.05a2.743 2.743 0 0 1-.006 0c-.05 0-.15-.3-.4-1.05a21.502 21.502 0 0 0-.762-1.923c-.177-.392-.367-.786-.569-1.181A27.559 27.559 0 0 0 19.5 46.25a20.192 20.192 0 0 0-4.31-3.368 31.479 31.479 0 0 0-1.79-.982c-.755-.377-1.377-.71-1.444-.83a.04.04 0 0 1-.006-.02.513.513 0 0 1 .005-.001c.026-.006.143-.033.28-.044A1.426 1.426 0 0 1 12.35 41a3.079 3.079 0 0 0 .226-.02c1.645-.183 11.298-1.538 13.273-1.833a21.79 21.79 0 0 0 .301-.047zm9.8 13.2v.35a1.928 1.928 0 0 0 .003.117c.013.215.068.319.197.533a1.246 1.246 0 0 0 .204.168.795.795 0 0 0 .446.132.791.791 0 0 0 .224-.033c.346-.103.693-.431.865-.892A1.785 1.785 0 0 0 38 52.05a1.365 1.365 0 0 0-.055-.404c-.121-.389-.434-.596-.895-.596-.645 0-.993.34-1.083 1.059a2.944 2.944 0 0 0-.017.191zm55.55 0v.35a1.928 1.928 0 0 0 .003.117c.013.215.068.319.197.533a1.246 1.246 0 0 0 .204.168.795.795 0 0 0 .446.132.791.791 0 0 0 .224-.033c.346-.103.693-.431.865-.892a1.785 1.785 0 0 0 .111-.625 1.365 1.365 0 0 0-.055-.404c-.121-.389-.434-.596-.895-.596-.645 0-.993.34-1.083 1.059a2.944 2.944 0 0 0-.017.191z" vector-effect="non-scaling-stroke" fill-rule="evenodd" stroke="#d6e8d6" stroke-width=".8mm"/></svg>