<?xml version="1.0" standalone="no"?>
<!DOCTYPE svg PUBLIC "-//W3C//DTD SVG 20010904//EN"
 "http://www.w3.org/TR/2001/REC-SVG-20010904/DTD/svg10.dtd">
<svg version="1.0" xmlns="http://www.w3.org/2000/svg"
 width="700.000000pt" height="700.000000pt" viewBox="0 0 700.000000 700.000000"
 preserveAspectRatio="xMidYMid meet">
<metadata>
Created by potrace 1.14, written by Peter Selinger 2001-2017
</metadata>
<g transform="translate(0.000000,700.000000) scale(0.100000,-0.100000)"
fill="#000000" stroke="none">
<path d="M1130 6989 c-42 -3 -86 -9 -98 -13 -12 -4 -32 -9 -45 -12 -104 -18
-313 -112 -422 -188 -86 -60 -110 -81 -201 -173 -162 -164 -267 -355 -332
-598 l-26 -100 -2 -2345 c-1 -1374 2 -2382 7 -2435 6 -49 15 -108 20 -130 6
-22 10 -40 9 -40 -1 0 11 -34 26 -75 30 -84 108 -246 130 -271 8 -8 14 -19 14
-22 0 -17 103 -141 182 -219 212 -208 509 -346 770 -359 46 -2 1125 -4 2398
-4 1779 0 2328 3 2370 12 30 7 66 15 79 17 64 14 194 62 274 102 391 195 674
600 706 1013 5 53 7 1140 7 2416 -2 2196 -3 2324 -20 2400 -58 259 -176 475
-356 655 -185 184 -391 296 -658 357 -72 17 -217 18 -2417 18 -1287 0 -2374
-2 -2415 -6z m2439 -1559 c49 -264 156 -519 317 -760 95 -142 107 -158 226
-290 278 -310 640 -544 1008 -651 36 -11 79 -23 95 -28 43 -14 172 -39 236
-47 30 -4 61 -8 69 -10 8 -1 33 -3 54 -3 22 -1 37 -3 35 -5 -2 -2 -62 -13
-134 -25 -322 -50 -442 -89 -730 -233 -193 -97 -410 -262 -586 -445 -222 -231
-372 -458 -476 -718 -40 -100 -106 -325 -118 -400 -4 -22 -8 -47 -10 -55 -2
-8 -7 -44 -11 -80 -4 -36 -9 -68 -10 -72 -1 -5 -2 -24 -3 -45 -2 -53 -9 -37
-16 37 -6 65 -11 104 -20 150 -3 14 -7 41 -10 60 -11 69 -37 167 -76 285 -77
233 -195 448 -358 655 -311 394 -745 687 -1194 805 -119 31 -195 46 -366 69
-59 8 -64 16 -10 17 24 0 53 2 64 4 11 2 40 7 64 10 103 14 300 62 364 88 20
9 37 14 37 12 0 -8 217 87 305 134 277 148 563 395 762 656 170 224 290 462
362 717 28 100 36 135 55 243 3 17 8 50 11 75 3 25 8 59 10 75 2 17 4 44 5 60
1 17 10 -28 20 -100 10 -71 23 -155 29 -185z"/>
</g>
</svg>
